<svg data-name="Calque 1" xmlns="http://www.w3.org/2000/svg" viewBox="0 0 117.57 120.5"><path d="M116.29 3.79a4.18 4.18 0 00-3.91-3.56c-36-1.78-63 6.87-80.46 25.83-23.22 25.24-21.33 60.2-20.5 68-5.57 10.19-11.25 21-11.25 21a4.17 4.17 0 001.89 5 3.87 3.87 0 002 .47 4.12 4.12 0 003.31-1.66.48.48 0 00.12-.35c.12-.12.12-.24.24-.24s3.44-6.4 3.56-6.52c1.89-3.43 4.14-7.7 6.51-12.08 26.78 4.86 56.17-3.32 75.6-21.45 13.57-12.71 28.62-35.93 22.89-74.44zM38.12 31.63c13.16-14.34 33-22.16 58.9-23.22a312 312 0 00-36.62 27 88.58 88.58 0 00-.35-11.61 4.192 4.192 0 00-8.3 1.19c.59 4 .36 13.15.12 18a213.59 213.59 0 00-32.35 37.56c.59-13.13 4.27-33.28 18.6-48.92zm49.54 40.53C70.83 87.9 45.59 95.38 22.13 91.95A173.34 173.34 0 0141.21 66c3.91-.48 19.07-2.14 30 .11a4.11 4.11 0 101.65-8c-7.46-1.54-16.35-1.43-23.1-1.07a290.4 290.4 0 0125.47-22.87c3.8-.24 15.17-.71 22 0a4.172 4.172 0 10.95-8.29 113.07 113.07 0 00-11.49-.48c9.36-6.63 17.3-11.61 22.16-14.45 2.86 31.35-9.7 50.54-21.19 61.21z" fill="#33ad73"/></svg>