<svg xmlns="http://www.w3.org/2000/svg" xmlns:xlink="http://www.w3.org/1999/xlink" width="1127.558" height="833.655"><style><![CDATA[.B{fill:#3f3d56}.C{fill:#33ad73}.D{fill:#ffb9b9}.E{fill:#2f2e41}.F{fill:#ff6584}]]></style><path d="M664.015 134.626v416.99c0 10.324-8.37 18.694-18.694 18.694H44.494c-3.495 0-6.847-1.388-9.318-3.86s-3.86-5.823-3.86-9.318V186.127c0-46.854 37.983-84.836 84.836-84.836H630.68c8.84 0 17.32 3.512 23.572 9.764s9.764 14.73 9.764 23.572z" fill="#f2f2f2"/><path d="M440.882 474.157c.05 33.34-7.584 66.24-22.306 96.153H44.494c-3.495 0-6.847-1.388-9.318-3.86s-3.86-5.823-3.86-9.318V370.048c47.61-87.632 148.613-131.784 245.268-107.215S440.9 374.427 440.882 474.157z" class="E"/><path d="M664.015 439.366v112.25c0 10.324-8.37 18.694-18.694 18.694H43.665c-7.224 0-13.08-5.855-13.083-13.08v-.133c0-93.495 290.8-173.243 373.483-204.2 96.204-35.915 204.433.1 259.95 86.48z" class="B"/><circle cx="564.926" cy="229.738" r="54.315" class="F"/><path d="M281.36 242.2c0 105.95-62.985 142.942-140.68 142.942S0 348.15 0 242.2 140.68 1.468 140.68 1.468 281.36 136.252 281.36 242.2z" class="C"/><path d="M135.556 368.936l1.44-88.67 59.96-109.697-59.736 95.787.648-39.87 41.325-79.365-41.153 68.814 1.164-71.707 44.253-63.184-44.07 51.908.728-131.485-4.575 174.063.376-7.18-44.99-68.866 44.27 82.65-4.192 80.085-.125-2.126-51.867-72.472 51.7 79.982-.524 10.015-.094.15.043.822-10.636 203.18h14.2l1.705-104.947 51.583-79.785-51.455 71.896z" class="B"/><path d="M510.74 193.644c0 85.225-50.665 114.982-113.163 114.982s-113.163-29.757-113.163-114.982S397.577 0 397.577 0 510.74 108.42 510.74 193.644z" class="C"/><path d="M393.454 295.59l1.16-71.326 48.233-88.24-48.05 77.05.52-32.07 33.242-63.84-33.104 55.354.937-57.68 35.596-50.825-35.45 41.755L397.124 0l-3.68 140.015.303-5.776-36.19-55.396 35.6 66.484-3.372 64.42-.1-1.7-41.722-58.296 41.595 64.337-.42 8.056-.076.12.035.662-8.556 163.437h11.43l1.37-84.418 41.494-64.18-41.39 57.833z" class="B"/><path d="M743.87 313.865c0 57.376-34.11 77.4-76.185 77.4s-76.185-20.034-76.185-77.4 76.185-130.368 76.185-130.368 76.185 72.992 76.185 130.368z" class="C"/><path d="M664.91 382.498l.78-48.018 32.472-59.407-32.35 51.874.35-21.592 22.38-42.98-22.287 37.266.63-38.833 23.965-34.217-23.866 28.11.395-71.206-2.478 94.263.204-3.888-24.365-37.295 23.974 44.76-2.27 43.37-.068-1.15-28.088-39.247 28.003 43.314-.284 5.423-.05.082.023.445-5.76 110.032h7.696l.923-56.833 27.935-43.208-27.866 38.935z" class="B"/><g class="C"><use xlink:href="#B"/><use xlink:href="#B" x="-104.962" y="14.68"/><use xlink:href="#C"/><use xlink:href="#B" x="146.063" y="-89.547"/><use xlink:href="#B" x="424.978" y="-6.607"/></g><path d="M1086.87 504.655c0 176.18-79.992 315.163-178.5 319-128.463 5.003-296.357-123.086-178.5-319 90.818-150.967 79.917-319 178.5-319s178.5 142.82 178.5 319z" fill="#f2f2f2"/><ellipse cx="857.87" cy="816.655" rx="159" ry="17" class="B"/><g class="C"><use xlink:href="#C" x="545" y="197"/><use xlink:href="#B" x="747.038" y="167.68"/></g><path d="M925.613 732.767s7.53 32.762 19.258 39.823-28.627 20.45-28.627 20.45-17.564 10.89-22.126 14.826-24.114 12.36-20.89 6.105 8.884-18.153 17.825-28.037 20.694-27.58 10.455-41.36 24.106-11.808 24.106-11.808z" class="D"/><use xlink:href="#D" class="F"/><use xlink:href="#D" opacity=".1"/><use xlink:href="#E" class="E"/><use xlink:href="#E" opacity=".1"/><path d="M844.39 765.917s-9.866 32.136-3.242 44.117-35.018 3.39-35.018 3.39-20.655.644-26.575 1.772-27.063-1.357-21.144-5.163 16.773-11.276 29.458-15.363 31.713-13.53 29.74-30.586 26.78 1.832 26.78 1.832z" class="D"/><path d="M825.925 444.698c5.46-3.9 12.037-5.928 18.746-5.78 10.853.423 46.372 8.88 45.385 10.57a35.63 35.63 0 0 1-3.242 4.228c0 0 2.255 10.29 1.27 11.276s19.3 24.243 7.47 74.138-10.57 84.428-10.57 84.428 4.792 146.304-8.88 149.263-67.514.987-70.05-4.792 7.752-185.205 7.752-185.205 1.128-90.206 3.806-101.2 8.316-36.928 8.316-36.928z" class="E"/><g class="D"><circle cx="888.013" cy="283.383" r="33.968"/><path d="M882.868 305.864s21 20.578-4.933 36.505c-18.26 11.215 44.117-8.74 44.117-8.74s-12.967-33.123-10.994-40.734-28.2 12.967-28.2 12.967z"/></g><path d="M888.083 338s29.176-13.4 33.968-8.598 25.512 24.525 2.96 59.48-26.92 61.17-30.727 64.13-6.202-3.806-6.202-3.806S877.09 439.2 869.9 439.2s-37.915 3.383-37.915 3.383l8.598-34.11s-4.228-26.92 10.148-40.31 30.163-35.378 30.163-35.378l8.14-1.487-5.376 6.846s-.792 2.112 4.423-.144z" class="F"/><path d="M965.037 567.475c-58.905-21.514-66.683-64.043-50.906-107.24s49.133-70.703 108.038-49.19 105.275 127.097 105.275 127.097-103.502 50.846-162.407 29.333z" class="C"/><path d="M924.182 460.676l49.005 18.806L1022 535.094l-41.125-52.662 22.035 8.456 35.733 39.09-29.902-36.853 39.63 15.208 26.143 37.433-19.91-35.042 72.955 27.104-95.846-37.888 3.916 1.667 47.424-11.03-54.94 7.83-43.673-18.592 1.207.362 50.824-14.12-54.967 12.51-5.462-2.325-.065-.083-.466-.143-110.803-47.17-2.886 7.9 58.002 22.258 33.884 44.88-29.524-43.207z" class="B"/><use xlink:href="#F" class="D"/><use xlink:href="#F" opacity=".1"/><path d="M905.138 379.862s-79.213 61.03-84.287 39.606c-3.298-13.924-.76-48.208 1.42-70.506 1.558-16.235 8.81-31.397 20.47-42.8 4.752-4.63 9.16-7.535 11.375-5.37 6.202 6.06-14.518 30.304-14.518 30.304s-3.383 49.19 3.383 54.83c0 0 24.5-23.667 29.592-23.32s32.566 17.26 32.566 17.26z" class="D"/><path d="M957.606 315.146c-6.49-9.768-11.847-25.48-17.628-39.315-1.874-4.484-3.585-9.027-5.26-13.59-3.378-9.194-18.085-21.063-37.347-21.063-22.015 0-39.862 11.08-39.862 20.374 0 7.685 12.204 14.163 28.872 16.178-5.856 13.07-9.384 27.578-9.384 37.415 0 22.26 18.045 12.845 40.305 12.845s52.623 5.697 40.305-12.845z" class="E"/><path d="M922.05 341.806s14.095 35.942-17.618 44.117c0 0-6.202-8.598-16.35-10.007s-19.17-11.98-19.17-11.98 20.72-29.176 36.928-29.74 16.21 7.61 16.21 7.61z" class="F"/><defs ><path id="B" d="M182.232 419.727c-3.372 5.378-7.746 5.252-11.69 2.78s-5.964-6.355-2.593-11.733 14.803-7.744 14.803-7.744 2.852 11.32-.52 16.698z"/><path id="C" d="M449.362 408.535c.624 6.317-2.914 8.894-7.546 9.35s-8.606-1.377-9.23-7.694 6.97-15.182 6.97-15.182 9.182 7.208 9.806 13.525z"/><path id="D" d="M884.84 334.195l-3.947-1.41s-10.148-1.41-19.45 10.43-30.586 47.78-30.586 47.78l-7.893 18.605 27.908.846 21-46.23z"/><path id="E" d="M880.613 620.46s15.927 3.524 13.25 15.786 16.632 28.2 18.464 30.868 4.5 3.806 2.82 7.893 39.324 61.735 31.15 66.95-74.42 25.652-80.34 21.565-10.712-137.847-10.712-137.847z"/><path id="F" d="M820.992 412.42s-12.544 16.914-4.228 23.256 25.793-4.5 25.793-4.5 40.31 28.05 39.747 11.558-29.458-27.908-29.458-27.908l-19.45.564 2.96-9.725-8.175-.846z"/></defs></svg>